<svg xmlns="http://www.w3.org/2000/svg" viewBox="0 0 136.12 155.15"><defs><style>.cls-1{fill:none;stroke:#ff2400;stroke-miterlimit:10;stroke-width:3px;fill-rule:evenodd;}</style></defs><title>coeur</title><g id="Layer_2" data-name="Layer 2"><g id="Layer_1-2" data-name="Layer 1"><path class="cls-1" d="M69.67,153.57a38,38,0,0,1-19.54-4.28c-8.65-4.29-15.84-11.09-22-18.55A118.5,118.5,0,0,1,1.6,62.43c-.34-6.33,0-13.15,3.71-18.27,13-17.76,34.4,14.55,50,8.25,4.44-1.79,8.07-5.12,11.33-8.62C80.19,29.32,93.59,2.44,116.17,1.52,142.57.46,133.73,35.45,131,51.17c-5.78,32.69-17.44,64.81-39.06,90.44C85.62,149,78,153,69.67,153.57Z"/></g></g></svg>