<svg xmlns="http://www.w3.org/2000/svg" viewBox="0 0 243.01 323.73"><defs><style>.cls-1{fill:#ed302f;fill-rule:evenodd;}</style></defs><title>logo_2</title><g id="Layer_2" data-name="Layer 2"><g id="Layer_1-2" data-name="Layer 1"><path class="cls-1" d="M74.62,256.33a20.07,20.07,0,0,1,11.85,2c14.18,6.93,23.68,22.15,24.72,37.7.82,12.18-3.37,26.84-17.73,27.63-14.91.82-25.25-12-29.72-24.83a56.76,56.76,0,0,1-3-25.31c.67-5.12,2.7-10.24,6.52-13.71A14.14,14.14,0,0,1,74.62,256.33Z"/><path class="cls-1" d="M53.62.52A51.39,51.39,0,0,1,62,0c16.26.37,33.56,8.8,41.54,23.26,2.51,4.54,4.63,10,9.45,11.91,6.28,2.49,12.89-2.27,17.93-5.53a92.24,92.24,0,0,1,64.7-13.17c14.49,2.38,29,8.64,37.92,20.29C242.14,48,244.61,63.22,242,77.16c-3.12,16.89-13,31.85-24.58,44.52-15.67,17.12-34.87,30.63-50.57,47.68-14.46,15.69-23.49,35.83-39.59,50.1-5.19,4.6-11.1,8.51-17.71,10.56-9.75,3-21.39,2.36-25-8.53-2.91-8.74-.76-19.22,1.57-27.84,3.88-14.33,10-28.17,19-40,10.26-13.55,23.58-22.56,39.09-29.08,11.83-5,28.37-10,32-24.08a17.11,17.11,0,0,0-3.4-14.56,23.84,23.84,0,0,0-13-8,29.92,29.92,0,0,0-21.47,2.76c-6.16,3.39-10.88,8.82-16.06,13.58S111,103.4,104,103.71c-6.11.27-12-2.62-16.57-6.72s-7.87-9.33-11-14.58c-3.25-5.47-7.42-11.55-13.89-7-4.8,3.41-7.28,9.19-11.09,13.5-5.84,6.58-13,12.89-22.18,13.51-11.5.79-21.88-8.38-25.94-19.17C-9.72,48.71,17.63,5.71,53.62.52Z"/></g></g></svg>