<svg xmlns="http://www.w3.org/2000/svg" viewBox="0 0 144.88 185"><defs><style>.cls-1,.cls-2{fill:#e4002b;}.cls-1{fill-rule:evenodd;}</style></defs><title>logoflat</title><g id="Layer_2" data-name="Layer 2"><g id="Layer_1-2" data-name="Layer 1"><path class="cls-1" d="M32,.31a29.3,29.3,0,0,1,5-.3c9.7.21,20,5.24,24.77,13.86,1.5,2.71,2.76,6,5.63,7.1C71.09,22.46,75,19.62,78,17.68A55,55,0,0,1,116.6,9.82c8.64,1.42,17.28,5.16,22.61,12.1,5.15,6.7,6.62,15.77,5.09,24.08-1.86,10.07-7.74,19-14.65,26.54C120.3,82.75,108.86,90.8,99.5,101c-8.62,9.36-14,21.36-23.61,29.87a29.17,29.17,0,0,1-10.56,6.29c-5.81,1.8-12.74,1.41-14.91-5.08-1.73-5.21-.45-11.46.94-16.6A69.67,69.67,0,0,1,62.66,91.6C68.78,83.53,76.72,78.15,86,74.26c7-3,16.91-5.94,19.09-14.35a10.19,10.19,0,0,0-2-8.68,14.2,14.2,0,0,0-7.72-4.76,17.81,17.81,0,0,0-12.8,1.64c-3.68,2-6.49,5.26-9.58,8.1s-6.77,5.43-11,5.62a14.17,14.17,0,0,1-9.87-4,36.32,36.32,0,0,1-6.56-8.69c-1.94-3.26-4.42-6.88-8.28-4.15-2.86,2-4.34,5.48-6.62,8.05-3.47,3.93-7.73,7.68-13.22,8.06-6.85.46-13-5-15.47-11.44C-5.8,29,10.51,3.4,32,.31Z"/><circle class="cls-2" cx="59.42" cy="169.5" r="15.5"/></g></g></svg>