<svg xmlns="http://www.w3.org/2000/svg" viewBox="0 0 147.88 189"><defs><style>.cls-1,.cls-2{fill:none;stroke:#e4002b;stroke-miterlimit:10;stroke-width:3px;}.cls-1{fill-rule:evenodd;}</style></defs><title>logo outline</title><g id="Layer_2" data-name="Layer 2"><g id="Layer_1-2" data-name="Layer 1"><path class="cls-1" d="M33.47,1.81a29.3,29.3,0,0,1,5-.3c9.7.21,20,5.24,24.77,13.86,1.5,2.71,2.76,6,5.63,7.1,3.75,1.49,7.69-1.35,10.7-3.29a55,55,0,0,1,38.56-7.86c8.64,1.42,17.28,5.16,22.61,12.1,5.15,6.7,6.62,15.77,5.09,24.08-1.86,10.07-7.74,19-14.65,26.54C121.8,84.25,110.36,92.3,101,102.47c-8.62,9.36-14,21.36-23.61,29.87a29.17,29.17,0,0,1-10.56,6.29c-5.81,1.8-12.74,1.41-14.91-5.08-1.73-5.21-.45-11.46.94-16.6A69.67,69.67,0,0,1,64.16,93.1C70.28,85,78.22,79.65,87.47,75.76c7-3,16.91-5.94,19.09-14.35a10.19,10.19,0,0,0-2-8.68A14.2,14.2,0,0,0,96.82,48,17.81,17.81,0,0,0,84,49.61c-3.68,2-6.49,5.26-9.58,8.1s-6.77,5.43-11,5.62a14.17,14.17,0,0,1-9.87-4,36.32,36.32,0,0,1-6.56-8.69c-1.94-3.26-4.42-6.88-8.28-4.15-2.86,2-4.34,5.48-6.62,8.05-3.47,3.93-7.73,7.68-13.22,8.06-6.85.46-13-5-15.47-11.44C-4.3,30.54,12,4.9,33.47,1.81Z"/><circle class="cls-2" cx="62.92" cy="172" r="15.5"/></g></g></svg>