<svg xmlns="http://www.w3.org/2000/svg" viewBox="0 0 1668.8 2398.4"><defs/><g id="Layer_2" data-name="Layer 2"><g id="Layer_1-2" data-name="Layer 1"><path d="M1426 0c17 4 36 69 38 85 2 24-8 78-17 99-6 14-25 26-29 40-7 22 10 43 2 64-12 37-33 52-30 97 1 16 6 72 28 75 26 4 43-48 65-57 47-20 45 7 29 36-5 10-19 9-24 25-7 20 22 12 19 33-4 25-33 38-38 65-4 25 13 68 14 93 2 23-2 44 1 67 13 78 57 120 109 172 29 30 39 47 56 84 22 50 14 46-3 100-10 30-27 95-19 126 1 7 29-11 33 15 2 13-16 27-14 45 4 1 5-7 7-5a22 22 0 0 1-4 14q-12 1-15-12c-9 9-7 43-14 54-27 42-9 5-28 23-21 21-52 59-74 51-48-16-52-144-95-158-18 25 23 95 34 110 18 25 25 15 20 50-2 12-23 63-34 60-6-26 28-40 27-66-2-29-19-16-29-33-16-27-38-102-23-135 19-5 62 93 74 111 32 50 22 53 64 22 25-19 61-40 65-74 1-10-25-80-37-74-8 6-8 34-14 43-61-32 37-95 42-118 3-16-14-76-16-95-3-31-4-28-23-47-12-13-32-45-43-55-28-26-21-8-36 29-5 14-23 57-35 55-25-6 19-74 11-87-1-3-40 44-54 37-21-10 19-44 23-56 14-43-26-47-21-74 3-18 39-13 46-44 9-35-22-65-29-96s8-68-11-97c-12-18-31-19-39-36-7-13 2-34-5-50-6-12-21-17-27-28-12-19-30-48-23-72 12-41 25-4 39-24 12-16 2-67 12-92 14-35 12-33 17-68 1-10 21-59 19-64-2-6-33 6-43-3-36-34 14-34 20-52 13-38-1-74 32-108Z" class="cls-1"/><path d="M1423 13c-8 20-42 138-46 133 14 18 39-7 48 5 16 22-43 59-15 69 19-42 40-67 41-115 1-19-6-86-28-92ZM1015 34c4 30-58 77-75 96-27 31-45 75-73 108-26 32-64 58-75 100-1 4 7 27 7 36-1 17-10 34-12 50-4 37-6 47 23 64 3 2 29-1 34 1 12 4 24 18 41 21 42 8 85-17 58 36-32 61-108 146-74 214 9 5 13-20 25-8 2 17-50 90-62 95-10-19 12-45 8-68-5-30-27-9-12-56 12-38 67-130 50-171-7-2-24 15-23 15-3-1-19-19-21-19 5 1-21-4-15-1 10 6-39-18-22-16-23-2-28 23-45-6-13-21 25-58 4-86-89 8 58-45 22-71-5 1-64 56-72 63-30 32-44 74-44 112-1 39 10 81 7 119-1 20-10 40-10 61 0 17 15 18 15 37 1 23-14 32-11 55 1 14 16 31 20 45 11 47 9 77 32 124 23 46 33 85 49 131 7 20 48 104 58 113 4 15 21 37 27 54 7 21 9 46 16 70 16 55 36 118 73 164 40 51 77 100 131 143 79 63 16-42 31-60 6 5 46 29 55 27 27-8 13-34 27-51a33 33 0 0 1 20 18c5-7 12-106 25-100 20 20 0 50 33 64 22 10 54-6 72-18 29-18 72-80 110-70 0 19-51 85-65 101-12 14-75 55-74 71 4 31 23 8 35 10 26 4 59-6 86-6 35 1 73 35 93 7 3-5 0-41 2-51 6-24 19-41 22-66 4-31-15-76 2-105 18-1 7 53 21 61 31-23 65-57 103-68 18 36-101 49-85 71 6-5 83-44 83-44 4 38-78 45-94 70-14 21-20 124-22 150-1 7 9 32 10 41 3 17-10 24 15 49 10 10 9 15 22 22 4 3 40-21 36 7-70 35-86-56-85-100 1-45 38-147 24-189-16 3-22 4-24-16-5 3-2 66-3 74l-18 86c-10 44-13 33-53 25-39-8-51-8-92-3-12 1-69 3-76-3-28-28 18-48 32-61 27-28 69-66 80-105-24-12-73 49-97 59-17 6-41 19-60 12-17-6-39-61-39-61 0 31 1 109-35 83-16 58-36 37-77 26 19 37 19 90-33 59-16-10-25-33-38-46-13-12-34-18-47-31-57-54-90-117-114-191-12-37-18-76-31-113-20-57-71-104-90-162-7-21-5-44-12-66-12-35-38-67-52-103-15-39-28-80-32-123l-11-26a134 134 0 0 1 10-35c-2-13-11-32-12-44-2-48 17-93 11-142-6-54-17-73 13-123 25-42 60-61 87-96 44-57 83-124 124-183 39-55 79-111 133-157Z" class="cls-1"/><path d="M1137 104c15 2 2 52 4 64 7 3 27-25 32-27 40 25-47 81-52 92-17 36-14 76-16 110-2 22-19 59-17 78 1 13 23 43 23 40 0 28-7 33-32 36-32 5-17-10-32-16l-27-14-40-22c-21-6-67 8-82-16-31-53 29-24 47-25a56 56 0 0 0 38-7 140 140 0 0 0 11-27c36-2 14 30 34 47 48-12 18-157 31-194 14-35 34-114 78-119Z" class="cls-1"/><path d="M1126 118c-65 48-65 153-65 226 0 19 5 69-21 79-41 16-9-37-40-42-21 25-16 33-54 35-35 2-17 6-42-17-29 20 60 46 77 26 16 7 6 27 24 34 11 5 30-1 43 3 16 6-3 24 12 29 11 4 35-11 44-15-3-14-23-17-25-34-1-25 15-40 16-61 2-32-10-62-2-93 4-19 22-73 33-89 5-7 67-23 43-44-3 7-20 29-31 26-5-13 3-62-12-63ZM623 142c25 19-22 55-34 61-18 10-36 9-54 16-33 15-37 33-60 57-17-9 8-31-1-38a236 236 0 0 0-34 31 145 145 0 0 1-33 5c-17 7-61 24-80 19 0-23 39-27 57-33 33-13 56-39 87-52 30-13 39-1 69-11 31-9 60-37 83-55ZM1596 154c34 13-8 53 0 77 3 9 75 43 43 64-18 8-30-39-47-24 0 2 53 174 15 145-13-10-2-35-15-49-19-18-24 21-44-6-15-20 13-54 2-73-8-15-33 11-35-17-1-18 37-25 47-39 17-25 2-62 34-78Z" class="cls-1"/><path d="M1594 168c8 23-45 82-50 102 37-13-6 88 25 87 17-56 42 41 46 49 18-18-17-71-22-88-13-43-9-42 13-64-7-12-20-8-24-34-2-14 32-40 12-52ZM1528 265c-9 7 10 12 12 3a22 22 0 0 0-12-3ZM1543 267ZM1541 268v2-2ZM1404 284c-9 22-29 28-28 60-8 0 41-55 28-60ZM180 334c33 0-53 56-52 54 13 34 64-53 90-44 14 5 4 13 6 26q0 15-11 26-11 34 27 26c9 14 23 24 19 48-7 35-19 14-39 32-4 4-28 62-42 49-3-14 3-51-2-59-7-13-49-43-57-2 57 10 7 64-27 52-29-10-20-47-28-66 0 27-45 32-52 27 1 0-15 26-11 21 3 1 24-113 25-121 39 4 120-50 154-69ZM790 364ZM1378 391c-8 39-29-2-36 11-14 28 12 57 25 79 12 21 17 45 28 65 8 15 19 13 30 29 14 20 17 37 19 61 5 43 14 66 25 106 5 19 13 58-1 77-3 4-36 23-39 18 12 25 32 24 22 65-3 12-30 41-30 48 21-4 35-42 53-33 29 14-23 61-12 84 14 6 29-78 36-85 43-40 37 20 58 47 16 20 37 6 50 37 15 38-7 68 20 107 0-56 37-61 18-114-20-57-55-91-99-130-76-69-70-168-82-266-8-58 26-60 33-102 0-1-17-18-15-32 3-24 36-25 38-37 13-57-78 34-82 36-27 9-19 12-38-6-12-11-13-62-21-65ZM774 419c-12 11-35-9-33 15a55 55 0 0 1 22-6 52 52 0 0 0 12 15q14-20-1-24ZM477 453c20 1 12 25 13 34 13-2 32-21 47-14 24 11 11 58 22 70 3-11-5-54 6-61-9 6 58 87 63 98 14 30 26 87 19 120-3 14-18 28-18 41 0 10 21 28 23 41-1-9-14 47-10 42-11 15-27-12-37-2 1 48-4 11-24 9-18-2-26 9-40-10-18-24 7-86 14-112-25 0-18 64-26 72-10 12-28 8-39 20-4 5 14 9 12 11-5 4 3 20-21 16-15-2-20-7-30-16-14-12-11-38-24-50-19-19-26-7-44-20-22-17-37-23-20-60 7-17 20-21 24-28 13-22 7-21 10-45 4-38-4-76 24-117 19-29 37-19 56-39ZM774 477c-4 7-11 25-10 33 4 35 16 7 36 14l26 8c13 3 17 27 23 27 32-22 36-30 36 15 1 34-23 70-24 105 16 0 30-54 35-66 14-35 28-52 51-82-15-21-66-6-91-13-8-3-12-17-17-19-4-1-27 1-32-1 1 0-36-21-33-21ZM55 552c15 7 193 107 111 142-18 8-173-120-111-142Z" class="cls-1"/><path d="M468 567c-1 8 31 24 31 36 7-34-8-26-31-36ZM454 621q0 9 9 13c0-4-6-12-9-13ZM977 653c12-1-14 90-42 85-26-4 29-81 42-85ZM202 659l40 17c20 17 4 12 24 35 14 16 42 23 54 38 6 9 33 53-8 50q2 6 11 0c2 11-30 15-34 14-9-19 10-12-7-30-19-19-39-37-59-54-24-21-65-36-21-70Z" class="cls-1"/><path d="M972 666a58 58 0 0 0-12 26c4-1 24-26 12-26ZM563 677ZM860 679ZM959 693l-4 12c3 0 5-11 4-12ZM958 696v1ZM958 700ZM555 706ZM953 707a113 113 0 0 0-14 22c8 6 21-15 14-22ZM458 712c-7 6 12 13 22 11-16-11 27-3-22-11ZM847 757a186 186 0 0 0-2-37c-13 0-19 31-18 36ZM995 722a41 41 0 0 1 22 21q17-13 33-2c15 8 14 25 26 34 19 14 42-6 48 24 7 39-27 13-37 14-56 3-15-3-58-38 7 5-24 14-32 11l-3-28a61 61 0 0 0-31-2c-7-33 18-22 32-34ZM583 733q-6 6 4 13c1-1-2-13-4-13Z" class="cls-1"/><path d="M993 735c-7 5-21 0-22 11 45-6 14 15 33 32 9 10 23-23 33-13 2 1 21 37 19 36-1 0 51 12 59 9 5-14-40-32-52-37l-37-20c-2-1-29-17-33-18ZM735 759c28 9 39 90 58 113 10 14 28 13 34 30 4 10-8 35-5 49 7 39 49 59 61 95 11 34 1 71 19 103 17 2 22-19 41-17 8 2 31 25 38 31 12 10 12 21 30 29 15 6 33-4 48 5 11 8 23 15 21 30-5 31-21 1-29 3 4-1-37-11-39-12-10-2-24 0-39-4-7-2-13-22-25-23-22-2-19 13-35 16-39 10-17 34-42-12-10-18 2-36-10-56-4-8-25-4-29-18-6-29 7-26 25-29-5-56-62-130-91-172-29-41-5-19-10-52-3-22-61-96-21-109ZM847 759c0 4 19 43 8 37 6-7 35-27 32-35-16-2-23 16-40-2ZM392 772c7 5-7 50-4 61 12 41 48 27 75 57 16 18 13 47 27 67 13 17 61 52 81 59 0-9-62-61-27-69 10-2 70 65 77 75 16 25 18 56 36 81 9 14 39 35 39 52-2 33-28-3-38-7-44-17-49-31-73-70-28-46-74-63-108-102-34-38-39-73-85-105-19-14-66-34-78-53 8 0 25-26 29-29 14-10 35-9 49-17ZM849 805c-3 3-10 26-7 28 4-3 13-24 7-28ZM1006 815l49 26c5 12-4 66-24 60-2-5-2-29-3-30-4-5-19-15-20-21-4-16-19-17-2-35Z" class="cls-1"/><path d="M1012 839c2 4 9 11 14 9-5-2-9-7-14-9ZM181 840c25 1 58 116 61 132 4 24 10 51 12 79 2 24 0 94 11 112 4-1 18-34 26-22q10 17 3 36-6 30 23 44c7 15 13 46 19 58 10 20 28 29 41 53 22 41 21 83 54 121 24 30 79 74 100 10 12-36-41-124-69-136-8-4-109 7-69-38 0 0 51-3 62-10 18-11-13-33 22-23 14 4 19 48 41 55 22-51-25-86-38-129-12-39-12-63 23-23 18-5-19-57-20-71-1-16 6-44 22-57 16-11 26 96 27 102 7 45 18 86 25 129 8 48-20 91-6 138 12 41 30 49 24 87-1 8-16 19-14 41 0 6 26 48 29 56 8 26 7 38 19 62 5 10 29 12 30 26 2 53-42 18-60 1a94 94 0 0 0-9-29l-23-7c-22-24-24-9-31-43 0-4 63-40-3-49-33-5-4 42-57 14-17-9-30-29-44-40-18-12-28-14-46-24-13-7-35 3-38-21-2-22 20-8 23-13-1 2 20 9 25 2 2-4-23-70-25-74-21-47-56-78-73-128-9-25-112-166-101-174 14-13 38 30 57-6 5-9-27-86-28-94l-7-38-1-31c-3-23-51-42-17-78ZM1042 850c-9 6-11 29-6 40 6 0 24-35 6-40ZM618 922c36-1 87 118 98 147 15 43 12 86 34 128 15 27 136 222 107 227a712 712 0 0 1-142-280c-11-36-122-204-97-222ZM72 985c28 0 23 140 20 158-5 29-9 50-9 81 0 20 6 61-12 77-18-3-24-56-25-69-2-18 3-37 2-55 0-1-14-8-14-24 1-22 19-41 23-61 8-36-6-73 15-107ZM1156 1021c37 9-2 48 23 70 8 7 32-7 33-5 17 35-4 14-15 39-3 8-16 43-20 47-36 35-16-12-17-36-2-33-45-81-4-115Z" class="cls-1"/><path d="m1048 1058 49 44a30 30 0 0 1 17 4q10 14 5 31a244 244 0 0 0 4 43 56 56 0 0 0 31 8c4 11 23 24 5 36-44 28-73-52-85-73-12-23-59-64-26-93ZM1528 64c-8 53-74 64-61 119 3-3 9-39 13-37 25 7 15 24 34 36 3 2 18 23 22 23 3 0 19-29 18-35-66-5-13-106-26-106ZM1364 1145c107 13-4 83-8 77-7-9 7-28 8-37-38 0-30-24 0-40ZM1270 1155c11 0 3 35 10 43 5 6 17-4 22 4 15 23 34 38 17 75-25 2-12-34-33-33-10 1-29 73-29 76-2 22 20 39 3 65-18 28-13 5-28-7-21 5-10 28-31 34-15-17-17-153-2-148 2 3 16 49 22 49 14-25 33-63 37-91 3-22-31-46 12-67ZM970 1157l1 1ZM975 1161ZM636 1166c36 1 86 90 41 85-27-3-53-72-41-85Z" class="cls-1"/><path d="M1263 1175c-19 25 5 24 3 40-3 25-10 38-19 61-25 61-23 55-53 2 1 0 6 105 12 113 14-45 34-5 42-4 11-43-9-70 13-114 16-34 36-61 50-9 7 0 5-35 1-38-7-9-22-6-29-15-10-12-11-23-20-36ZM732 1252c14 2 51 86 41 93-37-3-66-58-41-93ZM839 1261l1 1ZM615 1286c17 6 7 25 12 37 10 25 19 32 32 55 17 28 30 86-10 57-11-7-39-58-44-72-9-23-12-62 10-77ZM1205 1391a3 3 0 0 0 0 5 21 21 0 0 1 0-5ZM1136 1403c23 1 20 53 21 66 0 1 8 76-9 54-12-18-53-64-11-59 0-19-24-46-1-61ZM1599 366c9 1-5 14-4 13q-2-7 4-13ZM976 1412c31 0 109 118 109 148 1 66-79-87-93-83a124 124 0 0 1-7 21c-32-7-25-70-9-86ZM1573 406v1ZM109 1484c31 1 49 69 59 88l26 43c1 3 14 2 18 10 11 22 1 65-17 72 19-7-65-27-57-23-16-8-20 9-26-16-3-17 23-15 25-22 7-19 12-61-19-78-18-10-28 35-36-5-1-4 32-70 27-69ZM831 1485c25 0 4 38 4 47 15 9 31-3 44 20 21 35-1 22-14 28-8 4-29-15-39-10-20 12 14 48 13 62 0 15-20 18-21 37 0 18 30 46-3 55-34 11-65-68-64-89 2-34 51 6 9-43-7-8-154-44-106-79 15-11 86 39 106 40 49 1 20 10 47-32 7-10 15-30 24-36ZM976 1489l1 1-1-1ZM533 1534h1ZM927 1598c36 5 36 74 52 94 6-6 1-15 8-20-1 1 42 138 49 154 14 34 35 39-1 67-22 18-31 27-36-4-3-15 14-29 14-45s-9-28-15-42c-10-24-24-33-34-52-11-19-65-143-37-152ZM809 1666l2 1ZM1185 1685c23 14-17 47-12 61 38-14 2-46 47-46 11 0 81 33 83 37 18 27-11 47 3 77 4 10 22 6 28 15 19 30-7 10 1 27 12 28 18 39 20 76 0 14 17 75 11 84-34 52-62-59-65-87a21 21 0 0 0-6 1c2 44-5 73 28 105 20 20 42 16 45 51 2 23-15 19-15 40 0 20 53 91 30 109-13 7-90-193-101-213-32-58-73-103-111-158-44-64-100-82-38-145 9-9 44-56 25-5-2 5-28 11-33 23 47 0 28-26 60-52ZM51 1696c29 2 19 36 36 43 10 5 21-6 31-1 10 7 52 17 38 40-8 13-34 0-38 2-22 11-43 37-63 11-11-15-17-85-4-95ZM1352 1718c17 6 14 33 28 35 24 5 16-24 31-23 48 4 29 103 18 134-5 11-18 56-36 51-27-9-5-75-15-94-12-22-41-16-50-41-8-22 8-49 24-62ZM224 1745c23 3 65 98 68 120 12-9-3-118 20-35 12 44 3 74-37 45-12-8-14-25-30-33-10-6-28-5-34-8-11-6-20 7-25-17-6-35 26-13 41-25-1-14-20-37-3-47ZM712 1753c56 27 84 97 117 141 16 23 23 61 42 79 11 12 75 12 38 37-46 32-86-71-105-98-18-25-122-122-92-159Z" class="cls-1"/><path d="m1109 1756 1 2c-1-2 1-2-1-2ZM1230 1795v1ZM1481 1799c17 0 38 47 35 61-2 11-17 9-17 9 14-17-62 21-23 15-27 4-17 26-22-11-4-24 12-58 27-74ZM774 1829v1ZM1594 1838c3 1-13 55 2 70 12-8 11-34 27-36 12 6-5 31-4 40 14 0 23-31 30-3 5 19-26 26-26 45 0 11 16 8 20 18 6 18 5 26 6 44l1 60c5-1 7-25 14-23 7 1 5 66-7 69l-1-6c-16-1 3 2-13 17-13 8-14-62-15-66-6-22-18-39-32-57-5-6-86-97-48-93 12 1 27 27 38 33 0-62-17-44-44-51-14-36 12-56 32-40 11-4 11-18 20-21ZM1319 1860l1 2-1-2ZM1251 1870c-2-2 58 43 46 43 0-23 1-22 12-39-20 0-38-3-58-4ZM1293 1926l1 1ZM1512 1935c2 0 3 70 4 79 4 29 24 14 11 52 0 1-32 37-35 37-59 4 7-66 7-48 1-25-58-29-35-74 14 0 3 21 17 24 11-13 15-65 31-70ZM1309 1953l2 6-2-6ZM1572 2034c5 0 40 72 42 82 11 44-18 64-55 49-8-3-20-24-24-28-8-7-21 14-27 2-23-49 30-28 54-21 6-25-23-53 10-84ZM725 2065c40-1 129 87 83 116-20 13-27-39-50 6-9 18 3 36-8 56-8 12-48 18-27 55 8 14 27 3 40 14 21 17 10 2 3 31-6 25-8 36-28 46-4 2-12-21-21-18l-32 26c-18 1-45-4-45-29 1-23 16-12 25-19a519 519 0 0 1 47-16c9-2 18 22 29 17 21-10-30-31-37-41-25-30-6-71-7-106 0-23-8-34-12-50-1-5-14-5-15-16-1-9 5-32 13-39 19-16 12 1 38 6q-8-21 4-39ZM1418 2072c24 2 51 114 31 131a114 114 0 0 1-19-24c-39 19-27-86-12-107ZM346 2262c28 5 47 38 19 49-26 10-64-49-94-48-12 0-37 24-44 21-8-8 20-45 16-60-6-27-45-39-66-50-35-19-18-25-61-7-23 10-46 39-72 12-41-44 47-24 53-25 24-3 63-63 79-58 19 6 19 50 35 65 12 11 47 14 51 24a98 98 0 0 1 15 29q11 24 39 25c8 6 30 6 30 23ZM411 2115c43 0 91 77 122 102 43 35 118 53 69 121-6 8-21 0-25 6-2 4-2 20-4 23-17 26 2 35-39 30-11-1-47-22-59-27-25-8-80-28-43-68 3 1 13 18 15 18l29 2c17 7 92 26 87-21-1-11-128-149-129-147-17 22-6 132-31 131-6-34-26-149 8-170ZM1562 1078v2-2ZM152 2128v2-2Z" class="cls-1"/><path d="M272 2198a4 4 0 0 1 1 2 4 4 0 0 1-1-2ZM273 2200v1ZM274 2202ZM1374 2212ZM753 2220c0 1-1 1 1 2l-1-2ZM1548 1360v1-1ZM1568 1367ZM1605 1611c17 5-9 19-10 23-12 33-2 23-1 52 2 26 17 53 20 66-38 13-20-38-24-57s-22-17-18-43c2-17 23-30 33-41ZM1564 1559l1 1-1-1ZM1558 1563l1 2-1-2ZM1579 1595l1 1ZM1555 1609v1-1Z" class="cls-1"/></g></g></svg>